<?xml version="1.0" encoding="UTF-8" standalone="no"?>
<!-- Created with Inkscape (http://www.inkscape.org/) -->

<svg
   xmlns:dc="http://purl.org/dc/elements/1.1/"
   xmlns:cc="http://creativecommons.org/ns#"
   xmlns:rdf="http://www.w3.org/1999/02/22-rdf-syntax-ns#"
   xmlns:svg="http://www.w3.org/2000/svg"
   xmlns="http://www.w3.org/2000/svg"
   xmlns:sodipodi="http://sodipodi.sourceforge.net/DTD/sodipodi-0.dtd"
   xmlns:inkscape="http://www.inkscape.org/namespaces/inkscape"
   width="744.09448819"
   height="1052.3622047"
   id="svg3016"
   version="1.1"
   inkscape:version="0.48.5 r10040"
   sodipodi:docname="New document 3">
  <defs
     id="defs3018" />
  <sodipodi:namedview
     id="base"
     pagecolor="#ffffff"
     bordercolor="#666666"
     borderopacity="1.0"
     inkscape:pageopacity="0.0"
     inkscape:pageshadow="2"
     inkscape:zoom="32.278788"
     inkscape:cx="-641.72554"
     inkscape:cy="-143.67572"
     inkscape:document-units="px"
     inkscape:current-layer="layer1"
     showgrid="false"
     inkscape:window-width="1920"
     inkscape:window-height="1011"
     inkscape:window-x="-8"
     inkscape:window-y="-8"
     inkscape:window-maximized="1" />
  <metadata
     id="metadata3021">
    <rdf:RDF>
      <cc:Work
         rdf:about="">
        <dc:format>image/svg+xml</dc:format>
        <dc:type
           rdf:resource="http://purl.org/dc/dcmitype/StillImage" />
        <dc:title></dc:title>
      </cc:Work>
    </rdf:RDF>
  </metadata>
  <g
     inkscape:label="Layer 1"
     inkscape:groupmode="layer"
     id="layer1">
    <path
       style="fill:#a5a5a5;fill-opacity:1"
       d="m -651.3644,1185.8094 c -7.3053,5.4957 -6.89059,10.3551 -5.64933,12.9192 0.42943,1.5257 1.98895,0.8413 8.27708,0.6527 3.70693,0.1997 0.56742,4.9895 -0.24463,6.3439 -0.85254,2.252 2.28209,2.6651 7.33648,3.0765 l -9.7196,-22.9923 z"
       id="path3024"
       inkscape:connector-curvature="0"
       inkscape:export-filename="C:\Users\david_000\Documents\Visual Studio 2013\Projects\SCAN\SCANsat\SCANassets\Icons\SCAN_Color_Icon.png"
       inkscape:export-xdpi="90"
       inkscape:export-ydpi="90" />
    <path
       style="fill:#a5a5a5;fill-opacity:1"
       d="m -641.72825,1183.2741 c -3.69768,0 -7.10229,1 -9.8119,2.6798 l 0.0129,0.032 c 0.017,-0.013 0.0339,-0.026 0.0511,-0.039 l 5.1425,12.3667 4.4184,10.4868 c 0.0621,6e-4 0.12473,8e-4 0.18702,8e-4 8.83785,0 16.0027,-5.7143 16.0027,-12.7633 0,-7.049 -7.16485,-12.7633 -16.0027,-12.7633 z m 1.02801,16.8956 c 1.31741,0 2.40607,1.2568 2.48173,2.8657 l 0.004,0.1753 c 0,1.6794 -1.11255,3.0403 -2.48542,3.0403 -1.37287,0 -2.48605,-1.3609 -2.48605,-3.0403 0,-1.6793 1.11318,-3.041 2.48605,-3.041 z"
       id="path3049"
       inkscape:connector-curvature="0"
       inkscape:export-filename="C:\Users\david_000\Documents\Visual Studio 2013\Projects\SCAN\SCANsat\SCANassets\Icons\SCAN_Color_Icon.png"
       inkscape:export-xdpi="90"
       inkscape:export-ydpi="90" />
    <path
       transform="matrix(0.01711954,0,0,0.01711954,-629.41703,1175.4243)"
       sodipodi:open="true"
       sodipodi:end="6.2257241"
       sodipodi:start="0"
       d="m -242.4366,797.80371 a 171.72594,171.72594 0 1 1 -0.28342,-9.86215"
       sodipodi:ry="171.72594"
       sodipodi:rx="171.72594"
       sodipodi:cy="797.80371"
       sodipodi:cx="-414.16254"
       id="path3842"
       style="fill:#ee1d1b;fill-opacity:1"
       sodipodi:type="arc"
       inkscape:export-filename="C:\Users\david_000\Documents\Visual Studio 2013\Projects\SCAN\SCANsat\SCANassets\Icons\SCAN_Color_Icon.png"
       inkscape:export-xdpi="90"
       inkscape:export-ydpi="90" />
    <path
       sodipodi:type="arc"
       style="fill:#647301;fill-opacity:1"
       id="path3844"
       sodipodi:cx="-414.16254"
       sodipodi:cy="797.80371"
       sodipodi:rx="171.72594"
       sodipodi:ry="171.72594"
       d="m -242.4366,797.80371 a 171.72594,171.72594 0 1 1 -0.28342,-9.86215"
       sodipodi:start="0"
       sodipodi:end="6.2257241"
       sodipodi:open="true"
       transform="matrix(0.01711954,0,0,0.01711954,-644.95596,1180.2051)"
       inkscape:export-filename="C:\Users\david_000\Documents\Visual Studio 2013\Projects\SCAN\SCANsat\SCANassets\Icons\SCAN_Color_Icon.png"
       inkscape:export-xdpi="90"
       inkscape:export-ydpi="90" />
    <path
       transform="matrix(0.01711954,0,0,0.01711954,-638.79116,1174.9764)"
       sodipodi:open="true"
       sodipodi:end="6.2257241"
       sodipodi:start="0"
       d="m -242.4366,797.80371 a 171.72594,171.72594 0 1 1 -0.28342,-9.86215"
       sodipodi:ry="171.72594"
       sodipodi:rx="171.72594"
       sodipodi:cy="797.80371"
       sodipodi:cx="-414.16254"
       id="path3846"
       style="fill:#fea300;fill-opacity:1"
       sodipodi:type="arc"
       inkscape:export-filename="C:\Users\david_000\Documents\Visual Studio 2013\Projects\SCAN\SCANsat\SCANassets\Icons\SCAN_Color_Icon.png"
       inkscape:export-xdpi="90"
       inkscape:export-ydpi="90" />
    <path
       sodipodi:type="arc"
       style="fill:#fedcf8;fill-opacity:1"
       id="path3848"
       sodipodi:cx="-414.16254"
       sodipodi:cy="797.80371"
       sodipodi:rx="171.72594"
       sodipodi:ry="171.72594"
       d="m -242.4366,797.80371 a 171.72594,171.72594 0 1 1 -0.28342,-9.86215"
       sodipodi:start="0"
       sodipodi:end="6.2257241"
       sodipodi:open="true"
       transform="matrix(0.01711954,0,0,0.01711954,-623.76262,1182.6213)"
       inkscape:export-filename="C:\Users\david_000\Documents\Visual Studio 2013\Projects\SCAN\SCANsat\SCANassets\Icons\SCAN_Color_Icon.png"
       inkscape:export-xdpi="90"
       inkscape:export-ydpi="90" />
  </g>
</svg>
